<?xml version="1.0" encoding="utf-8"?>
<!-- Generator: Adobe Illustrator 22.1.0, SVG Export Plug-In . SVG Version: 6.00 Build 0)  -->
<svg version="1.1" id="Layer_1" xmlns="http://www.w3.org/2000/svg" xmlns:xlink="http://www.w3.org/1999/xlink" x="0px" y="0px"
	 viewBox="0 0 14.4 5" style="enable-background:new 0 0 14.4 5;" xml:space="preserve">
<style type="text/css">
	.st0{fill:#FFFFFF;}
</style>
<path class="st0" d="M14.4,0v1.7c-0.9,0-1.7,0.3-2.5,0.9c-0.2,0.2-0.4,0.3-0.5,0.5C10.3,4.4,8.8,5,7.2,5C5.9,5,4.6,4.5,3.5,3.6
	C3.3,3.4,3.2,3.3,3.1,3.1C2.3,2.2,1.1,1.7,0,1.7V0h0.1c1.3,0,2.7,0.5,3.7,1.4c0.1,0.1,0.3,0.3,0.4,0.4C5.6,3.5,8,3.8,9.7,2.4
	c0.2-0.2,0.4-0.3,0.5-0.5C11.3,0.6,12.9,0,14.4,0z"/>
</svg>
