<?xml version="1.0" encoding="utf-8"?>
<!-- Generator: Adobe Illustrator 22.1.0, SVG Export Plug-In . SVG Version: 6.00 Build 0)  -->
<svg version="1.1" id="Layer_1" xmlns="http://www.w3.org/2000/svg" xmlns:xlink="http://www.w3.org/1999/xlink" x="0px" y="0px"
	 viewBox="0 0 500 245" enable-background="new 0 0 500 245" xml:space="preserve">
<path fill="#FFFFFF" d="M123.1,5.8c0.9-2.8,3-4.2,6.1-4.2c3.1,0,5.2,1.5,6.2,4.4l36.3,101.6c0.1,0.3,0.2,0.7,0.2,1.1
	c0,2.1-1.1,3.1-3.2,3.1h-1.9c-1.4,0-2.4-0.7-3-2l-34.4-97.7l-34.6,97.7c-0.6,1.4-1.6,2-3,2h-1.9c-2.1,0-3.2-1-3.2-3.1
	c0-0.4,0.1-0.8,0.2-1.1L123.1,5.8z M119.7,63.4H139c0.8,0,1.6,0.3,2.2,0.9c0.6,0.6,1,1.3,1,2.3V68c0,0.9-0.3,1.7-1,2.3
	c-0.6,0.6-1.4,0.9-2.2,0.9h-19.3c-2,0-3-1-3-3.1v-1.4C116.7,64.5,117.7,63.4,119.7,63.4z"/>
<path fill="#FFFFFF" d="M198.5,1.7h21.6c25.5,0,38.2,10,38.2,29.9c0,7.8-2.5,14.7-7.4,20.7c-5,6-12.7,9-23.4,9h-1.7l34.1,44.7
	c1.3,1.9,1.9,3,1.9,3.5c0,1.6-0.7,2.4-2.2,2.4h-3.2c-1.4,0-2.4-0.4-3-1.3l-36.5-47.8c-1.2-1.7-1.7-3-1.7-4.1c0-3.4,1.8-5,5.5-5h6.9
	c4.4,0,8.2-0.7,11.4-2.2c3.2-1.5,5.5-3.4,6.9-5.7c3-4.5,4.4-9.2,4.4-14c0-14.8-10.2-22.2-30.5-22.2h-20.2v99.1
	c0,0.8-0.3,1.6-0.9,2.2c-0.6,0.6-1.3,0.9-2.3,0.9H195c-0.9,0-1.7-0.3-2.3-0.9c-0.6-0.6-0.9-1.4-0.9-2.2V9.1c0-2.8,0.4-4.8,1.3-5.8
	C194.1,2.3,195.8,1.7,198.5,1.7z"/>
<path fill="#FFFFFF" d="M276.3,1.7h70.1c1,0,1.7,0.3,2.3,0.9c0.6,0.6,0.9,1.4,0.9,2.2v1.7c0,1.9-1.1,2.8-3.2,2.8h-70.1
	c-2.1,0-3.2-0.9-3.2-2.8V4.9c0-0.8,0.3-1.6,0.9-2.2C274.8,2.1,275.5,1.7,276.3,1.7z M310.5,13.7h1.6c2.1,0,3.2,1,3.2,3v92
	c0,0.8-0.3,1.6-0.9,2.2c-0.6,0.6-1.3,0.9-2.3,0.9h-1.6c-1,0-1.7-0.3-2.3-0.9c-0.6-0.6-0.9-1.4-0.9-2.2v-92
	C307.3,14.7,308.4,13.7,310.5,13.7z"/>
<path fill="#FFFFFF" d="M10.2,132.8h25.6c15.6,0,26,3.8,31.1,11.3c2.6,3.8,4.4,7.9,5.4,12.5c0.9,4.6,1.4,10.3,1.4,17.2v30.2
	c0,13.4-2.8,23.3-8.5,29.5c-5.6,6.2-15.1,9.4-28.5,9.4H10.3c-4.2,0-6.3-2.2-6.3-6.5v-97.4c0-2.3,0.4-3.9,1.3-4.9
	C6.2,133.3,7.8,132.8,10.2,132.8z M35.8,140.5H11.9v94.7h24.8c10,0,17.4-2.4,22.1-7.1c4.7-4.7,7.1-12.4,7.1-23.1v-31.6
	c0-11.5-2.1-19.9-6.3-25.1C55.4,143.1,47.4,140.5,35.8,140.5z"/>
<path fill="#FFFFFF" d="M110.6,136.5c3.8-1.6,7.1-2.6,10-3.1c2.8-0.4,5.8-0.6,8.8-0.6c3,0,6,0.2,8.9,0.7c2.9,0.5,6.3,1.5,10,3.2
	c3.7,1.7,7,3.9,9.7,6.5c2.7,2.7,5.1,6.5,6.9,11.3c1.9,4.9,2.8,10.5,2.8,16.9v31.9c0,6.6-1,12.4-2.9,17.5c-2,5-4.3,8.9-7.1,11.6
	c-2.8,2.7-6,4.9-9.7,6.6c-5.9,2.6-12.1,3.9-18.6,3.9c-6.8,0-12.7-1.2-17.5-3.5c-4.8-2.3-8.6-4.8-11.3-7.6c-2.7-2.7-5.1-6.6-7-11.6
	c-1.9-5-2.8-10.7-2.8-17.1v-31.9c0-6.6,1-12.4,2.9-17.3c1.9-4.9,4.3-8.7,7-11.3C103.6,140.3,106.8,138.2,110.6,136.5z M144.2,143.6
	c-3-1.3-5.6-2.1-7.9-2.5c-2.3-0.4-4.6-0.5-6.9-0.5c-2.4,0-4.7,0.2-7,0.5c-2.3,0.4-5,1.2-8,2.5c-3,1.3-5.6,3-7.8,5.2
	c-2.2,2.2-4.1,5.3-5.6,9.3c-1.5,4-2.3,8.7-2.3,14.1V203c0,5.3,0.8,10.1,2.3,14.2c1.5,4.1,3.4,7.3,5.7,9.5c2.3,2.3,4.9,4.1,7.8,5.4
	c2.9,1.4,5.6,2.3,8,2.7c2.4,0.4,4.7,0.6,7,0.6c2.3,0,4.7-0.2,7-0.6c2.4-0.4,5-1.3,8-2.7c3-1.4,5.5-3.2,7.7-5.4
	c2.2-2.3,4.1-5.4,5.6-9.5c1.5-4.1,2.3-8.8,2.3-14.2v-30.8c0-5.4-0.8-10-2.4-14.1c-1.6-4-3.5-7.1-5.7-9.3
	C149.8,146.7,147.2,144.9,144.2,143.6z"/>
<path fill="#FFFFFF" d="M204.9,135.9c3.7-1.7,7.1-2.8,10-3.3c2.9-0.5,5.7-0.7,8.5-0.7c2.8,0,5.6,0.2,8.5,0.7c2.8,0.5,6,1.5,9.4,3
	c3.4,1.5,6.5,3.5,9.2,5.8c2.7,2.4,5.2,5.6,7.3,9.8c2.1,4.1,3.4,8.9,3.9,14.4c0,2.3-1.1,3.5-3.2,3.5h-1.4c-1.9,0-3-0.9-3.2-2.8
	c-0.5-4.4-1.6-8.3-3.3-11.6c-1.7-3.4-3.6-5.9-5.8-7.7c-2.2-1.8-4.7-3.3-7.6-4.4c-4.2-1.8-8.1-2.7-11.8-2.7c-3.6,0-6.6,0.2-9,0.6
	c-2.4,0.4-5,1.3-8,2.7c-3,1.4-5.5,3.2-7.7,5.4c-2.2,2.3-4.1,5.4-5.6,9.5c-1.5,4.1-2.3,8.8-2.3,14.2V203c0,5.3,0.8,10.1,2.5,14.2
	c1.7,4.1,3.7,7.3,6.1,9.5c2.4,2.3,5.1,4.1,8.3,5.4c5.1,2.2,9.8,3.3,14.2,3.3c4.4,0,8.2-0.4,11.3-1.2c3.1-0.8,6.2-2.2,9.2-4.2
	c6.5-4.1,9.8-11.7,9.8-22.8c0-1.8,0.3-2.9,0.9-3.5c0.6-0.5,1.3-0.8,2.3-0.8h1.3c2.1,0,3.2,1,3.2,3.1c0,6.4-1,12-3.1,16.8
	c-2.1,4.8-4.5,8.5-7.2,10.9c-2.7,2.5-6,4.4-9.6,5.9c-5.7,2.2-10.7,3.3-14.9,3.3c-4.3,0-8-0.3-11.1-0.8c-3.1-0.5-6.6-1.7-10.4-3.5
	c-3.9-1.8-7.2-4-10.1-6.8c-2.9-2.7-5.3-6.6-7.3-11.6c-2-5-3-10.7-3-17.1v-31.9c0-6.6,1-12.4,2.9-17.5c1.9-5,4.3-8.9,7.1-11.6
	C197.9,139.8,201.1,137.6,204.9,135.9z"/>
<path fill="#FFFFFF" d="M343,132.8h1.7c0.9,0,1.7,0.3,2.4,0.9c1,1,1.1,2.3,0.3,3.6l-27.6,49.4l29.7,51.6c0.3,0.6,0.5,1.2,0.5,1.7
	c0,1.9-1.1,2.8-3.2,2.8h-1.7c-1.2,0-2-0.3-2.4-0.9l-27.2-47.4l-24,44c-1.9,3.1-4,4.7-6.3,4.7c-4,0-6-2.1-6-6.3V136
	c0-0.8,0.3-1.6,0.9-2.2c0.6-0.6,1.3-0.9,2.3-0.9h1.6c0.9,0,1.7,0.3,2.3,0.9c0.6,0.6,0.9,1.4,0.9,2.2v94.4l31.3-57l22.4-39.6
	C341.2,133.1,342,132.8,343,132.8z"/>
<linearGradient id="SVGID_1_" gradientUnits="userSpaceOnUse" x1="375.843" y1="17.6624" x2="479.6726" y2="121.492">
	<stop  offset="0" style="stop-color:#A851F1"/>
	<stop  offset="1" style="stop-color:#8043D9"/>
</linearGradient>
<path fill="url(#SVGID_1_)" d="M490.8,112.3H390.2c-2.9,0-5.2-2.3-5.2-5.2V6.9c0-2.9,2.3-5.2,5.2-5.2h50.3c2.1,0,3.8,1.7,3.8,3.8
	c0,2.1-1.7,3.8-3.8,3.8h-47.9v95.3h95.7V57c0-2.1,1.7-3.8,3.8-3.8c2.1,0,3.8,1.7,3.8,3.8v50.1C496,109.9,493.7,112.3,490.8,112.3z"
	/>
</svg>
