<svg version="1" xmlns="http://www.w3.org/2000/svg" width="933.333" height="933.333" viewBox="0 0 700.000000 700.000000"><path d="M22.5 4.6c-10 3.6-18.1 12.1-21 21.9-2.1 6.9-2.2 641.2-.1 649 2.5 9.5 9.3 17.6 18.5 21.8l4.6 2.2 323.6.3c299.7.2 323.9.1 328.5-1.5 9.7-3.2 15.4-8.2 20.1-17.3l2.8-5.5v-331l-2.7-4.5c-6.8-11.6-19.6-15.6-31.5-9.9-5.4 2.6-10.6 8.6-12.2 14-1 3.2-1.3 38.1-1.3 156V652h-8.1c-4.5.1-140.3.2-301.8.3l-293.5.2V51H201c169.5 0 158.2.5 165.3-6.7 12.1-12.1 9.1-31.4-6.1-38.9-3.6-1.8-10-1.9-168.7-2.1-142.1-.1-165.6 0-169 1.3z"/></svg>